# xmcd
#
# Track frame offsets: 
#        150
#        19656
#        37284
#        59105
#        78529
#        99379
#        117577
#        140460
#        166249
#        183995
#        202633
#        222957
#        242296
#        264954
#        284324
#        305961
#
# Disc length: 4404 seconds
#
# Revision: 0
# Processed by: cddbd v1.5.2PL0 Copyright (c) Steve Scherf et al.
# Submitted via: ExactAudioCopyFreeDBPlugin 1.0
#
DISCID=e6113210
DTITLE=スガシカオ - BEST HIT!! SUGA SHIKAO 2003-2011 Disc1
DYEAR=2013
DGENRE=J-Blues
TTITLE0=約束
TTITLE1=サヨナラホームラン
TTITLE2=はじまりの日 feat.Mummy-D
TTITLE3=Party People
TTITLE4=コノユビトマレ
TTITLE5=NOBODY KNOWS
TTITLE6=フォノスコープ
TTITLE7=午後のパレード
TTITLE8=真夏の夜のユメ
TTITLE9=19才
TTITLE10=奇跡
TTITLE11=夏陰～なつかげ～
TTITLE12=光の川
TTITLE13=クライマックス
TTITLE14=秘密
TTITLE15=サヨナラ
EXTD=
EXTT0=
EXTT1=
EXTT2=
EXTT3=
EXTT4=
EXTT5=
EXTT6=
EXTT7=
EXTT8=
EXTT9=
EXTT10=
EXTT11=
EXTT12=
EXTT13=
EXTT14=
EXTT15=
PLAYORDER=
